<?xml version="1.0" encoding="utf-8"?>
<!-- Generator: Adobe Illustrator 17.0.0, SVG Export Plug-In . SVG Version: 6.00 Build 0)  -->
<!DOCTYPE svg PUBLIC "-//W3C//DTD SVG 1.1//EN" "http://www.w3.org/Graphics/SVG/1.1/DTD/svg11.dtd">
<svg version="1.1" id="Capa_1" xmlns="http://www.w3.org/2000/svg" xmlns:xlink="http://www.w3.org/1999/xlink" x="0px" y="0px"
	 width="95.566px" height="98.979px" viewBox="0 0 95.566 98.979" enable-background="new 0 0 95.566 98.979" xml:space="preserve">
<g>
	<g>
		<path fill="#FDC600" d="M95.565,50.881c-6.362-8.414-14.759-3.83-22.987-8.179c6.468-5.115,7.324-15.036,17.258-16.752
			c-9.571-3.993-14.634,4.326-23.857,4.819c3.13-7.781-0.916-16.814,6.859-23.444C62.622,8.823,62.254,18.65,54.504,23.854
			C53.458,15.493,45.594,9.768,49.125,0c-8.122,6.586-3.699,15.286-7.897,23.806c-4.942-6.701-14.516-7.585-16.175-17.872
			c-3.854,9.91,4.178,15.151,4.654,24.708c-7.512-3.245-16.233,0.947-22.637-7.104C8.52,34.119,18.005,34.5,23.03,42.525
			C14.956,43.61,9.429,51.754,0,48.098c6.355,8.413,14.76,3.831,22.987,8.178c-6.472,5.119-7.325,15.034-17.259,16.753
			c9.571,3.994,14.633-4.329,23.857-4.82c-3.131,7.781,0.915,16.814-6.858,23.444c10.216-1.5,10.584-11.326,18.333-16.529
			c1.047,8.364,8.91,14.086,5.378,23.855c8.124-6.587,3.7-15.286,7.901-23.809c4.942,6.701,14.515,7.586,16.175,17.874
			c3.853-9.911-4.181-15.153-4.657-24.708c7.512,3.243,16.234-0.946,22.635,7.102c-1.445-10.58-10.932-10.959-15.956-18.989
			C80.606,55.369,86.136,47.225,95.565,50.881z"/>
	</g>
</g>
</svg>
